<?xml version="1.0" encoding="UTF-8"?>
<svg xmlns="http://www.w3.org/2000/svg" width="800" height="400" viewBox="0 0 800 400">
  <defs>
    <linearGradient id="bgGradE1" x1="0%" y1="0%" x2="100%" y2="100%">
      <stop offset="0%" style="stop-color:#0f172a"/>
      <stop offset="100%" style="stop-color:#1e293b"/>
    </linearGradient>
    <filter id="glowE1">
      <feGaussianBlur stdDeviation="2" result="coloredBlur"/>
      <feMerge>
        <feMergeNode in="coloredBlur"/>
        <feMergeNode in="SourceGraphic"/>
      </feMerge>
    </filter>
  </defs>
  
  <!-- Background -->
  <rect width="800" height="400" fill="url(#bgGradE1)"/>
  
  <!-- Title -->
  <text x="400" y="35" fill="#3b82f6" font-family="Inter, sans-serif" font-size="18" font-weight="600" text-anchor="middle">Hugging Face Model Workflow</text>
  
  <!-- HF Logo stylized -->
  <g transform="translate(20, 70)">
    <circle cx="30" cy="30" r="28" fill="#ffcc00" opacity="0.2"/>
    <text x="30" y="38" fill="#ffcc00" font-size="24" text-anchor="middle">🤗</text>
  </g>
  
  <!-- Step 1: Browse Hub -->
  <g transform="translate(80, 80)">
    <rect x="0" y="0" width="120" height="90" rx="8" fill="#1e293b" stroke="#3b82f6" stroke-width="2"/>
    <circle cx="60" cy="25" r="15" fill="#3b82f6" opacity="0.2"/>
    <text x="60" y="30" fill="#3b82f6" font-family="Inter, sans-serif" font-size="12" font-weight="600" text-anchor="middle">1</text>
    <text x="60" y="52" fill="#f8fafc" font-family="Inter, sans-serif" font-size="11" font-weight="500" text-anchor="middle">Browse Hub</text>
    <text x="60" y="68" fill="#94a3b8" font-family="Inter, sans-serif" font-size="9" text-anchor="middle">huggingface.co/</text>
    <text x="60" y="80" fill="#94a3b8" font-family="Inter, sans-serif" font-size="9" text-anchor="middle">models</text>
  </g>
  
  <!-- Arrow 1 -->
  <line x1="205" y1="125" x2="235" y2="125" stroke="#14b8a6" stroke-width="2"/>
  <polygon points="240,125 230,120 230,130" fill="#14b8a6"/>
  
  <!-- Step 2: Select Model -->
  <g transform="translate(245, 80)">
    <rect x="0" y="0" width="120" height="90" rx="8" fill="#1e293b" stroke="#3b82f6" stroke-width="2"/>
    <circle cx="60" cy="25" r="15" fill="#3b82f6" opacity="0.2"/>
    <text x="60" y="30" fill="#3b82f6" font-family="Inter, sans-serif" font-size="12" font-weight="600" text-anchor="middle">2</text>
    <text x="60" y="52" fill="#f8fafc" font-family="Inter, sans-serif" font-size="11" font-weight="500" text-anchor="middle">Select Model</text>
    <text x="60" y="68" fill="#94a3b8" font-family="Inter, sans-serif" font-size="9" text-anchor="middle">Filter by task,</text>
    <text x="60" y="80" fill="#94a3b8" font-family="Inter, sans-serif" font-size="9" text-anchor="middle">size, license</text>
  </g>
  
  <!-- Arrow 2 -->
  <line x1="370" y1="125" x2="400" y2="125" stroke="#14b8a6" stroke-width="2"/>
  <polygon points="405,125 395,120 395,130" fill="#14b8a6"/>
  
  <!-- Step 3: Check Model Card -->
  <g transform="translate(410, 80)">
    <rect x="0" y="0" width="120" height="90" rx="8" fill="#1e293b" stroke="#14b8a6" stroke-width="2"/>
    <circle cx="60" cy="25" r="15" fill="#14b8a6" opacity="0.2"/>
    <text x="60" y="30" fill="#14b8a6" font-family="Inter, sans-serif" font-size="12" font-weight="600" text-anchor="middle">3</text>
    <text x="60" y="52" fill="#f8fafc" font-family="Inter, sans-serif" font-size="11" font-weight="500" text-anchor="middle">Model Card</text>
    <text x="60" y="68" fill="#94a3b8" font-family="Inter, sans-serif" font-size="9" text-anchor="middle">README, limits,</text>
    <text x="60" y="80" fill="#94a3b8" font-family="Inter, sans-serif" font-size="9" text-anchor="middle">intended use</text>
  </g>
  
  <!-- Arrow 3 -->
  <line x1="535" y1="125" x2="565" y2="125" stroke="#14b8a6" stroke-width="2"/>
  <polygon points="570,125 560,120 560,130" fill="#14b8a6"/>
  
  <!-- Step 4: Download/API -->
  <g transform="translate(575, 80)">
    <rect x="0" y="0" width="120" height="90" rx="8" fill="#1e293b" stroke="#3b82f6" stroke-width="2"/>
    <circle cx="60" cy="25" r="15" fill="#3b82f6" opacity="0.2"/>
    <text x="60" y="30" fill="#3b82f6" font-family="Inter, sans-serif" font-size="12" font-weight="600" text-anchor="middle">4</text>
    <text x="60" y="52" fill="#f8fafc" font-family="Inter, sans-serif" font-size="11" font-weight="500" text-anchor="middle">Download/API</text>
    <text x="60" y="68" fill="#94a3b8" font-family="Inter, sans-serif" font-size="9" text-anchor="middle">transformers</text>
    <text x="60" y="80" fill="#94a3b8" font-family="Inter, sans-serif" font-size="9" text-anchor="middle">or Inference API</text>
  </g>
  
  <!-- Arrow to bottom row -->
  <line x1="635" y1="175" x2="635" y2="210" stroke="#14b8a6" stroke-width="2"/>
  <polygon points="635,215 630,205 640,205" fill="#14b8a6"/>
  
  <!-- Step 5: Test -->
  <g transform="translate(575, 220)">
    <rect x="0" y="0" width="120" height="90" rx="8" fill="#1e293b" stroke="#3b82f6" stroke-width="2"/>
    <circle cx="60" cy="25" r="15" fill="#3b82f6" opacity="0.2"/>
    <text x="60" y="30" fill="#3b82f6" font-family="Inter, sans-serif" font-size="12" font-weight="600" text-anchor="middle">5</text>
    <text x="60" y="52" fill="#f8fafc" font-family="Inter, sans-serif" font-size="11" font-weight="500" text-anchor="middle">Test Locally</text>
    <text x="60" y="68" fill="#94a3b8" font-family="Inter, sans-serif" font-size="9" text-anchor="middle">Validate with</text>
    <text x="60" y="80" fill="#94a3b8" font-family="Inter, sans-serif" font-size="9" text-anchor="middle">sample inputs</text>
  </g>
  
  <!-- Arrow 5 -->
  <line x1="570" y1="265" x2="540" y2="265" stroke="#14b8a6" stroke-width="2"/>
  <polygon points="535,265 545,260 545,270" fill="#14b8a6"/>
  
  <!-- Step 6: Deploy -->
  <g transform="translate(410, 220)">
    <rect x="0" y="0" width="120" height="90" rx="8" fill="#1e293b" stroke="#14b8a6" stroke-width="2"/>
    <circle cx="60" cy="25" r="15" fill="#14b8a6" opacity="0.2"/>
    <text x="60" y="30" fill="#14b8a6" font-family="Inter, sans-serif" font-size="12" font-weight="600" text-anchor="middle">6</text>
    <text x="60" y="52" fill="#f8fafc" font-family="Inter, sans-serif" font-size="11" font-weight="500" text-anchor="middle">Deploy</text>
    <text x="60" y="68" fill="#94a3b8" font-family="Inter, sans-serif" font-size="9" text-anchor="middle">Spaces, Endpoints,</text>
    <text x="60" y="80" fill="#94a3b8" font-family="Inter, sans-serif" font-size="9" text-anchor="middle">or self-host</text>
  </g>
  
  <!-- Code Example Box -->
  <g transform="translate(80, 195)">
    <rect x="0" y="0" width="280" height="120" rx="8" fill="#0f172a" stroke="#334155" stroke-width="1"/>
    <text x="10" y="20" fill="#94a3b8" font-family="monospace" font-size="10">from transformers import pipeline</text>
    <text x="10" y="38" fill="#94a3b8" font-family="monospace" font-size="10"></text>
    <text x="10" y="56" fill="#3b82f6" font-family="monospace" font-size="10">pipe = pipeline(</text>
    <text x="20" y="72" fill="#14b8a6" font-family="monospace" font-size="10">"text-generation",</text>
    <text x="20" y="88" fill="#14b8a6" font-family="monospace" font-size="10">model="meta-llama/Llama-2-7b"</text>
    <text x="10" y="104" fill="#3b82f6" font-family="monospace" font-size="10">)</text>
  </g>
  
  <!-- Tips Box -->
  <g transform="translate(80, 330)">
    <rect x="0" y="0" width="640" height="55" rx="6" fill="#1e293b" stroke="#334155" stroke-width="1"/>
    <text x="15" y="20" fill="#3b82f6" font-family="Inter, sans-serif" font-size="11" font-weight="600">💡 Best Practices:</text>
    <text x="15" y="38" fill="#94a3b8" font-family="Inter, sans-serif" font-size="10">• Always check the license • Review model card limitations • Test with edge cases • Monitor for drift</text>
  </g>
</svg>
