<?xml version="1.0" encoding="UTF-8"?>
<svg xmlns="http://www.w3.org/2000/svg" width="600" height="400" viewBox="0 0 600 400">
  <defs>
    <linearGradient id="bgGradO1E" x1="0%" y1="0%" x2="100%" y2="100%">
      <stop offset="0%" style="stop-color:#0f172a"/>
      <stop offset="100%" style="stop-color:#1e293b"/>
    </linearGradient>
  </defs>
  
  <!-- Background -->
  <rect width="600" height="400" fill="url(#bgGradO1E)"/>
  
  <!-- Title -->
  <text x="300" y="35" fill="#3b82f6" font-family="Inter, sans-serif" font-size="16" font-weight="600" text-anchor="middle">Ollama Architecture</text>
  
  <!-- API Server -->
  <g transform="translate(40, 70)">
    <rect x="0" y="0" width="150" height="120" rx="10" fill="#1e293b" stroke="#3b82f6" stroke-width="2"/>
    <text x="75" y="25" fill="#3b82f6" font-family="Inter, sans-serif" font-size="11" font-weight="500" text-anchor="middle">API Server</text>
    <line x1="10" y1="35" x2="140" y2="35" stroke="#3b82f6" stroke-width="1" opacity="0.3"/>
    
    <rect x="15" y="50" width="120" height="25" rx="5" fill="#0f172a" stroke="#14b8a6" stroke-width="1"/>
    <text x="75" y="67" fill="#14b8a6" font-family="Inter, sans-serif" font-size="10" text-anchor="middle">REST API</text>
    
    <rect x="15" y="85" width="120" height="25" rx="5" fill="#0f172a" stroke="#64748b" stroke-width="1"/>
    <text x="75" y="102" fill="#94a3b8" font-family="Inter, sans-serif" font-size="10" text-anchor="middle">:11434</text>
  </g>
  
  <!-- Arrow -->
  <line x1="195" y1="130" x2="235" y2="130" stroke="#22c55e" stroke-width="2"/>
  <polygon points="240,130 230,125 230,135" fill="#22c55e"/>
  
  <!-- Model Manager -->
  <g transform="translate(245, 70)">
    <rect x="0" y="0" width="150" height="120" rx="10" fill="#1e293b" stroke="#14b8a6" stroke-width="2"/>
    <text x="75" y="25" fill="#14b8a6" font-family="Inter, sans-serif" font-size="11" font-weight="500" text-anchor="middle">Model Manager</text>
    <line x1="10" y1="35" x2="140" y2="35" stroke="#14b8a6" stroke-width="1" opacity="0.3"/>
    
    <text x="20" y="55" fill="#94a3b8" font-family="Inter, sans-serif" font-size="9">• Load models</text>
    <text x="20" y="70" fill="#94a3b8" font-family="Inter, sans-serif" font-size="9">• Manage memory</text>
    <text x="20" y="85" fill="#94a3b8" font-family="Inter, sans-serif" font-size="9">• Switch contexts</text>
    <text x="20" y="100" fill="#94a3b8" font-family="Inter, sans-serif" font-size="9">• Handle sessions</text>
  </g>
  
  <!-- Arrow -->
  <line x1="395" y1="100" x2="435" y2="100" stroke="#14b8a6" stroke-width="2"/>
  <polygon points="440,100 430,95 430,105" fill="#14b8a6"/>
  
  <!-- Model Files -->
  <g transform="translate(445, 55)">
    <rect x="0" y="0" width="130" height="90" rx="10" fill="#1e293b" stroke="#f59e0b" stroke-width="2"/>
    <text x="65" y="22" fill="#f59e0b" font-family="Inter, sans-serif" font-size="10" font-weight="500" text-anchor="middle">GGUF Models</text>
    <line x1="10" y1="32" x2="120" y2="32" stroke="#f59e0b" stroke-width="1" opacity="0.3"/>
    
    <text x="15" y="50" fill="#94a3b8" font-family="Inter, sans-serif" font-size="9">📦 llama3.2-3b</text>
    <text x="15" y="65" fill="#94a3b8" font-family="Inter, sans-serif" font-size="9">📦 mistral-7b</text>
    <text x="15" y="80" fill="#94a3b8" font-family="Inter, sans-serif" font-size="9">📦 codellama</text>
  </g>
  
  <!-- Arrow down -->
  <line x1="320" y1="195" x2="320" y2="225" stroke="#22c55e" stroke-width="2"/>
  <polygon points="320,230 315,220 325,220" fill="#22c55e"/>
  
  <!-- Inference Engine -->
  <g transform="translate(195, 235)">
    <rect x="0" y="0" width="250" height="100" rx="10" fill="#1e293b" stroke="#22c55e" stroke-width="2"/>
    <text x="125" y="25" fill="#22c55e" font-family="Inter, sans-serif" font-size="12" font-weight="600" text-anchor="middle">Inference Engine</text>
    <line x1="10" y1="35" x2="240" y2="35" stroke="#22c55e" stroke-width="1" opacity="0.3"/>
    
    <rect x="15" y="50" width="100" height="35" rx="6" fill="#14532d" stroke="#22c55e" stroke-width="1"/>
    <text x="65" y="65" fill="#22c55e" font-family="Inter, sans-serif" font-size="10" text-anchor="middle">🎮 GPU</text>
    <text x="65" y="78" fill="#94a3b8" font-family="Inter, sans-serif" font-size="8" text-anchor="middle">CUDA/Metal</text>
    
    <rect x="135" y="50" width="100" height="35" rx="6" fill="#172554" stroke="#3b82f6" stroke-width="1"/>
    <text x="185" y="65" fill="#3b82f6" font-family="Inter, sans-serif" font-size="10" text-anchor="middle">💻 CPU</text>
    <text x="185" y="78" fill="#94a3b8" font-family="Inter, sans-serif" font-size="8" text-anchor="middle">AVX/NEON</text>
  </g>
  
  <!-- Arrow -->
  <line x1="320" y1="340" x2="320" y2="365" stroke="#22c55e" stroke-width="2"/>
  <polygon points="320,370 315,360 325,360" fill="#22c55e"/>
  
  <!-- Response -->
  <g transform="translate(245, 370)">
    <rect x="0" y="0" width="150" height="25" rx="6" fill="#14532d" stroke="#22c55e" stroke-width="2"/>
    <text x="75" y="17" fill="#22c55e" font-family="Inter, sans-serif" font-size="10" text-anchor="middle">Response Stream</text>
  </g>
  
  <!-- Request -->
  <g transform="translate(40, 220)">
    <rect x="0" y="0" width="120" height="80" rx="6" fill="#0f172a" stroke="#334155" stroke-width="1"/>
    <text x="60" y="20" fill="#94a3b8" font-family="Inter, sans-serif" font-size="9" text-anchor="middle">Request</text>
    <text x="60" y="38" fill="#3b82f6" font-family="monospace" font-size="8" text-anchor="middle">POST /api/generate</text>
    <text x="60" y="55" fill="#64748b" font-family="monospace" font-size="8" text-anchor="middle">{model: "llama3.2"</text>
    <text x="60" y="68" fill="#64748b" font-family="monospace" font-size="8" text-anchor="middle">prompt: "..."}</text>
  </g>
  
  <line x1="165" y1="260" x2="190" y2="285" stroke="#334155" stroke-width="1" stroke-dasharray="3,2"/>
  
  <!-- Memory -->
  <g transform="translate(470, 180)">
    <rect x="0" y="0" width="110" height="80" rx="6" fill="#0f172a" stroke="#334155" stroke-width="1"/>
    <text x="55" y="18" fill="#94a3b8" font-family="Inter, sans-serif" font-size="9" text-anchor="middle">Memory</text>
    <text x="55" y="38" fill="#f59e0b" font-family="Inter, sans-serif" font-size="9" text-anchor="middle">VRAM: 8GB</text>
    <text x="55" y="55" fill="#3b82f6" font-family="Inter, sans-serif" font-size="9" text-anchor="middle">RAM: 16GB</text>
    <text x="55" y="70" fill="#64748b" font-family="Inter, sans-serif" font-size="8" text-anchor="middle">Quantized: Q4_K_M</text>
  </g>
  
  <line x1="450" y1="285" x2="470" y2="260" stroke="#334155" stroke-width="1" stroke-dasharray="3,2"/>
</svg>
