<?xml version="1.0" encoding="UTF-8"?>
<svg xmlns="http://www.w3.org/2000/svg" width="800" height="500" viewBox="0 0 800 500">
  <defs>
    <linearGradient id="bgGradP3" x1="0%" y1="0%" x2="100%" y2="100%">
      <stop offset="0%" style="stop-color:#0f172a"/>
      <stop offset="100%" style="stop-color:#1e293b"/>
    </linearGradient>
  </defs>
  
  <!-- Background -->
  <rect width="800" height="500" fill="url(#bgGradP3)"/>
  
  <!-- Window Frame -->
  <rect x="20" y="20" width="760" height="460" rx="10" fill="#1e293b" stroke="#334155" stroke-width="2"/>
  
  <!-- Header Bar -->
  <rect x="20" y="20" width="760" height="50" rx="10" fill="#0f172a"/>
  <rect x="20" y="60" width="760" height="10" fill="#0f172a"/>
  <circle cx="45" cy="45" r="6" fill="#ef4444"/>
  <circle cx="67" cy="45" r="6" fill="#f59e0b"/>
  <circle cx="89" cy="45" r="6" fill="#22c55e"/>
  <text x="400" y="50" fill="#f8fafc" font-family="Inter, sans-serif" font-size="14" font-weight="600" text-anchor="middle">📧 AI Email Triage Dashboard</text>
  
  <!-- Stats Bar -->
  <rect x="40" y="80" width="720" height="50" rx="8" fill="#0f172a" stroke="#334155" stroke-width="1"/>
  
  <g transform="translate(70, 95)">
    <text x="0" y="12" fill="#ef4444" font-family="Inter, sans-serif" font-size="20" font-weight="700">12</text>
    <text x="30" y="12" fill="#94a3b8" font-family="Inter, sans-serif" font-size="10">Urgent</text>
  </g>
  
  <g transform="translate(180, 95)">
    <text x="0" y="12" fill="#f59e0b" font-family="Inter, sans-serif" font-size="20" font-weight="700">28</text>
    <text x="30" y="12" fill="#94a3b8" font-family="Inter, sans-serif" font-size="10">Action</text>
  </g>
  
  <g transform="translate(290, 95)">
    <text x="0" y="12" fill="#3b82f6" font-family="Inter, sans-serif" font-size="20" font-weight="700">45</text>
    <text x="30" y="12" fill="#94a3b8" font-family="Inter, sans-serif" font-size="10">Info</text>
  </g>
  
  <g transform="translate(400, 95)">
    <text x="0" y="12" fill="#64748b" font-family="Inter, sans-serif" font-size="20" font-weight="700">8</text>
    <text x="20" y="12" fill="#94a3b8" font-family="Inter, sans-serif" font-size="10">Spam</text>
  </g>
  
  <rect x="500" y="90" width="1" height="30" fill="#334155"/>
  
  <g transform="translate(530, 95)">
    <text x="0" y="12" fill="#22c55e" font-family="Inter, sans-serif" font-size="11">✓ 93 emails triaged today</text>
    <text x="0" y="26" fill="#64748b" font-family="Inter, sans-serif" font-size="9">Accuracy: 97.8%</text>
  </g>
  
  <!-- Email List -->
  <rect x="40" y="145" width="720" height="320" rx="8" fill="#0f172a"/>
  
  <!-- Email Headers -->
  <g transform="translate(55, 160)">
    <text x="0" y="0" fill="#64748b" font-family="Inter, sans-serif" font-size="10" font-weight="500">Priority</text>
    <text x="80" y="0" fill="#64748b" font-family="Inter, sans-serif" font-size="10" font-weight="500">From</text>
    <text x="220" y="0" fill="#64748b" font-family="Inter, sans-serif" font-size="10" font-weight="500">Subject</text>
    <text x="520" y="0" fill="#64748b" font-family="Inter, sans-serif" font-size="10" font-weight="500">AI Summary</text>
  </g>
  
  <line x1="55" y1="170" x2="745" y2="170" stroke="#334155" stroke-width="1"/>
  
  <!-- Email 1 - Urgent -->
  <g transform="translate(55, 185)">
    <rect x="-5" y="-5" width="700" height="45" rx="5" fill="#1e293b" opacity="0.5"/>
    <rect x="0" y="0" width="60" height="25" rx="4" fill="#450a0a" stroke="#ef4444" stroke-width="1"/>
    <text x="30" y="17" fill="#ef4444" font-family="Inter, sans-serif" font-size="9" font-weight="600" text-anchor="middle">🔴 URGENT</text>
    
    <text x="80" y="15" fill="#f8fafc" font-family="Inter, sans-serif" font-size="10">CEO Office</text>
    <text x="220" y="15" fill="#f8fafc" font-family="Inter, sans-serif" font-size="10">Q4 Board Meeting - Immediate Review Required</text>
    <text x="520" y="15" fill="#94a3b8" font-family="Inter, sans-serif" font-size="9">Requests approval of...</text>
    <text x="80" y="30" fill="#64748b" font-family="Inter, sans-serif" font-size="9">2 min ago</text>
  </g>
  
  <!-- Email 2 - Urgent -->
  <g transform="translate(55, 240)">
    <rect x="-5" y="-5" width="700" height="45" rx="5" fill="#1e293b" opacity="0.3"/>
    <rect x="0" y="0" width="60" height="25" rx="4" fill="#450a0a" stroke="#ef4444" stroke-width="1"/>
    <text x="30" y="17" fill="#ef4444" font-family="Inter, sans-serif" font-size="9" font-weight="600" text-anchor="middle">🔴 URGENT</text>
    
    <text x="80" y="15" fill="#f8fafc" font-family="Inter, sans-serif" font-size="10">Security Team</text>
    <text x="220" y="15" fill="#f8fafc" font-family="Inter, sans-serif" font-size="10">Critical: Production incident P1 - AWS outage</text>
    <text x="520" y="15" fill="#94a3b8" font-family="Inter, sans-serif" font-size="9">Multiple services down...</text>
    <text x="80" y="30" fill="#64748b" font-family="Inter, sans-serif" font-size="9">15 min ago</text>
  </g>
  
  <!-- Email 3 - Action -->
  <g transform="translate(55, 295)">
    <rect x="-5" y="-5" width="700" height="45" rx="5" fill="#1e293b" opacity="0.2"/>
    <rect x="0" y="0" width="60" height="25" rx="4" fill="#422006" stroke="#f59e0b" stroke-width="1"/>
    <text x="30" y="17" fill="#f59e0b" font-family="Inter, sans-serif" font-size="9" font-weight="600" text-anchor="middle">🟡 ACTION</text>
    
    <text x="80" y="15" fill="#f8fafc" font-family="Inter, sans-serif" font-size="10">HR Department</text>
    <text x="220" y="15" fill="#f8fafc" font-family="Inter, sans-serif" font-size="10">Please sign: New benefits enrollment form</text>
    <text x="520" y="15" fill="#94a3b8" font-family="Inter, sans-serif" font-size="9">Deadline: Friday 5pm</text>
    <text x="80" y="30" fill="#64748b" font-family="Inter, sans-serif" font-size="9">1 hour ago</text>
  </g>
  
  <!-- Email 4 - Info -->
  <g transform="translate(55, 350)">
    <rect x="-5" y="-5" width="700" height="45" rx="5" fill="#1e293b" opacity="0.1"/>
    <rect x="0" y="0" width="60" height="25" rx="4" fill="#172554" stroke="#3b82f6" stroke-width="1"/>
    <text x="30" y="17" fill="#3b82f6" font-family="Inter, sans-serif" font-size="9" font-weight="600" text-anchor="middle">🔵 INFO</text>
    
    <text x="80" y="15" fill="#f8fafc" font-family="Inter, sans-serif" font-size="10">Marketing</text>
    <text x="220" y="15" fill="#f8fafc" font-family="Inter, sans-serif" font-size="10">Weekly newsletter: Product updates</text>
    <text x="520" y="15" fill="#94a3b8" font-family="Inter, sans-serif" font-size="9">FYI - no action needed</text>
    <text x="80" y="30" fill="#64748b" font-family="Inter, sans-serif" font-size="9">3 hours ago</text>
  </g>
  
  <!-- Email 5 - Spam -->
  <g transform="translate(55, 405)">
    <rect x="-5" y="-5" width="700" height="45" rx="5" fill="#1e293b" opacity="0.05"/>
    <rect x="0" y="0" width="60" height="25" rx="4" fill="#1f2937" stroke="#64748b" stroke-width="1"/>
    <text x="30" y="17" fill="#64748b" font-family="Inter, sans-serif" font-size="9" font-weight="600" text-anchor="middle">⚪ SPAM</text>
    
    <text x="80" y="15" fill="#64748b" font-family="Inter, sans-serif" font-size="10">unknown@promo.co</text>
    <text x="220" y="15" fill="#64748b" font-family="Inter, sans-serif" font-size="10" text-decoration="line-through">You've won $1,000,000!!!</text>
    <text x="520" y="15" fill="#64748b" font-family="Inter, sans-serif" font-size="9">Phishing detected</text>
    <text x="80" y="30" fill="#475569" font-family="Inter, sans-serif" font-size="9">Yesterday</text>
  </g>
</svg>
