<svg xmlns="http://www.w3.org/2000/svg" width="500" height="500" viewBox="0 0 500 500">
  <defs>
    <linearGradient id="skillGrad" x1="0%" y1="0%" x2="100%" y2="0%">
      <stop offset="0%" style="stop-color:#3b82f6"/>
      <stop offset="100%" style="stop-color:#8b5cf6"/>
    </linearGradient>
  </defs>
  
  <!-- Background -->
  <rect width="500" height="500" fill="#0f172a"/>
  
  <!-- Title -->
  <text x="250" y="35" text-anchor="middle" font-family="Inter, sans-serif" font-size="18" font-weight="bold" fill="url(#skillGrad)">📊 Skills Radar: Before &amp; After</text>
  
  <!-- Radar Grid (Pentagon) -->
  <!-- Outer ring (100%) -->
  <polygon points="250,70 430,200 365,400 135,400 70,200" fill="none" stroke="#334155" stroke-width="1"/>
  
  <!-- 80% ring -->
  <polygon points="250,104 394,212 337,372 163,372 106,212" fill="none" stroke="#334155" stroke-width="1" stroke-dasharray="3,3"/>
  
  <!-- 60% ring -->
  <polygon points="250,138 358,224 309,344 191,344 142,224" fill="none" stroke="#334155" stroke-width="1" stroke-dasharray="3,3"/>
  
  <!-- 40% ring -->
  <polygon points="250,172 322,236 281,316 219,316 178,236" fill="none" stroke="#334155" stroke-width="1" stroke-dasharray="3,3"/>
  
  <!-- 20% ring -->
  <polygon points="250,206 286,248 253,288 247,288 214,248" fill="none" stroke="#334155" stroke-width="1" stroke-dasharray="3,3"/>
  
  <!-- Center point -->
  <circle cx="250" cy="240" r="3" fill="#64748b"/>
  
  <!-- Axis lines -->
  <line x1="250" y1="240" x2="250" y2="70" stroke="#475569" stroke-width="1"/>
  <line x1="250" y1="240" x2="430" y2="200" stroke="#475569" stroke-width="1"/>
  <line x1="250" y1="240" x2="365" y2="400" stroke="#475569" stroke-width="1"/>
  <line x1="250" y1="240" x2="135" y2="400" stroke="#475569" stroke-width="1"/>
  <line x1="250" y1="240" x2="70" y2="200" stroke="#475569" stroke-width="1"/>
  
  <!-- Labels -->
  <text x="250" y="55" text-anchor="middle" font-family="Inter, sans-serif" font-size="11" font-weight="bold" fill="#f8fafc">AI Literacy</text>
  <text x="445" y="200" text-anchor="start" font-family="Inter, sans-serif" font-size="11" font-weight="bold" fill="#f8fafc">Prompt</text>
  <text x="445" y="215" text-anchor="start" font-family="Inter, sans-serif" font-size="11" font-weight="bold" fill="#f8fafc">Engineering</text>
  <text x="375" y="420" text-anchor="middle" font-family="Inter, sans-serif" font-size="11" font-weight="bold" fill="#f8fafc">Security</text>
  <text x="125" y="420" text-anchor="middle" font-family="Inter, sans-serif" font-size="11" font-weight="bold" fill="#f8fafc">Governance</text>
  <text x="55" y="200" text-anchor="end" font-family="Inter, sans-serif" font-size="11" font-weight="bold" fill="#f8fafc">Integration</text>
  
  <!-- BEFORE shape (small, red/orange) -->
  <polygon points="250,180 290,225 270,300 230,300 210,225" fill="#ef4444" fill-opacity="0.3" stroke="#ef4444" stroke-width="2"/>
  
  <!-- AFTER shape (large, green/teal) -->
  <polygon points="250,90 410,208 350,385 150,385 90,208" fill="#22c55e" fill-opacity="0.3" stroke="#22c55e" stroke-width="2"/>
  
  <!-- Data points - Before (small circles) -->
  <circle cx="250" cy="180" r="5" fill="#ef4444"/>
  <circle cx="290" cy="225" r="5" fill="#ef4444"/>
  <circle cx="270" cy="300" r="5" fill="#ef4444"/>
  <circle cx="230" cy="300" r="5" fill="#ef4444"/>
  <circle cx="210" cy="225" r="5" fill="#ef4444"/>
  
  <!-- Data points - After (larger circles) -->
  <circle cx="250" cy="90" r="6" fill="#22c55e"/>
  <circle cx="410" cy="208" r="6" fill="#22c55e"/>
  <circle cx="350" cy="385" r="6" fill="#22c55e"/>
  <circle cx="150" cy="385" r="6" fill="#22c55e"/>
  <circle cx="90" cy="208" r="6" fill="#22c55e"/>
  
  <!-- Legend -->
  <rect x="150" y="445" width="200" height="45" rx="8" fill="#1e293b" stroke="#64748b" stroke-width="1"/>
  
  <circle cx="180" cy="460" r="6" fill="#ef4444"/>
  <text x="195" y="464" font-family="Inter, sans-serif" font-size="10" fill="#ef4444">Before Course</text>
  
  <circle cx="180" cy="480" r="6" fill="#22c55e"/>
  <text x="195" y="484" font-family="Inter, sans-serif" font-size="10" fill="#22c55e">After Course</text>
  
  <!-- Improvement stats -->
  <text x="290" y="464" font-family="Inter, sans-serif" font-size="9" fill="#94a3b8">Avg: 25%</text>
  <text x="290" y="484" font-family="Inter, sans-serif" font-size="9" fill="#94a3b8">Avg: 85%</text>
</svg>